<svg xmlns="http://www.w3.org/2000/svg" viewBox="0 0 64 64" width="64px" height="64px">
  <path d="M32 1C14.879 1 1 14.879 1 32s13.879 31 31 31 31-13.879 31-31S49.121 1 32 1zM32 61C15.432 61 3 48.568 3 32S15.432 3 32 3s29 12.432 29 29S48.568 61 32 61z"/>
  <path d="M41 17c-2.209 0-4 1.791-4 4s1.791 4 4 4 4-1.791 4-4S43.209 17 41 17zM41 23c-1.654 0-3-1.346-3-3s1.346-3 3-3 3 1.346 3 3S42.654 23 41 23zM48 13c-1.654 0-3 1.346-3 3s1.346 3 3 3 3-1.346 3-3S49.654 13 48 13zM48 18c-1.654 0-3-1.346-3-3s1.346-3 3-3 3 1.346 3 3S49.654 18 48 18zM32 9c-2.209 0-4 1.791-4 4s1.791 4 4 4 4-1.791 4-4S34.209 9 32 9zM32 15c-1.654 0-3-1.346-3-3s1.346-3 3-3 3 1.346 3 3S33.654 15 32 15z"/>
</svg>
